<?xml version="1.0" encoding="UTF-8"?>
<!DOCTYPE svg PUBLIC "-//W3C//DTD SVG 1.1//EN" "http://www.w3.org/Graphics/SVG/1.1/DTD/svg11.dtd">
<svg version="1.1" xmlns="http://www.w3.org/2000/svg" xmlns:xlink="http://www.w3.org/1999/xlink" x="0" y="0" width="64" height="64" viewBox="0, 0, 64, 64">
  <g id="Background">
    <rect x="0" y="0" width="64" height="64" fill="#000000" fill-opacity="0"/>
  </g>
  <defs>
    <linearGradient id="Gradient_1" gradientUnits="userSpaceOnUse" x1="640" y1="256" x2="3584" y2="3968">
      <stop offset="0" stop-color="#2D3132"/>
      <stop offset="0.55" stop-color="#111516"/>
      <stop offset="1" stop-color="#080A0B"/>
    </linearGradient>
    <radialGradient id="Gradient_2" gradientUnits="userSpaceOnUse" cx="26" cy="22" r="35">
      <stop offset="0" stop-color="#565C5E"/>
      <stop offset="0.55" stop-color="#2D3234"/>
      <stop offset="1" stop-color="#171A1B"/>
    </radialGradient>
  </defs>
  <g id="Layer_1">
    <path d="M8.533,0 L55.467,0 C60.18,0 64,3.821 64,8.533 L64,55.467 C64,60.18 60.18,64 55.467,64 L8.533,64 C3.821,64 0,60.18 0,55.467 L0,8.533 C0,3.821 3.821,0 8.533,0 z" fill="url(#Gradient_1)"/>
    <g>
      <path d="M7,23.875 L9.5,23.875 C10.881,23.875 12,24.994 12,26.375 L12,37.625 C12,39.006 10.881,40.125 9.5,40.125 L7,40.125 C5.619,40.125 4.5,39.006 4.5,37.625 L4.5,26.375 C4.5,24.994 5.619,23.875 7,23.875 z" fill="#758083"/>
      <path d="M54.5,23.875 L57,23.875 C58.381,23.875 59.5,24.994 59.5,26.375 L59.5,37.625 C59.5,39.006 58.381,40.125 57,40.125 L54.5,40.125 C53.119,40.125 52,39.006 52,37.625 L52,26.375 C52,24.994 53.119,23.875 54.5,23.875 z" fill="#758083"/>
      <g>
        <path d="M57,32 C57,45.807 45.807,57 32,57 C18.193,57 7,45.807 7,32 C7,18.193 18.193,7 32,7 C45.807,7 57,18.193 57,32 z" fill="url(#Gradient_2)"/>
        <path d="M57,32 C57,45.807 45.807,57 32,57 C18.193,57 7,45.807 7,32 C7,18.193 18.193,7 32,7 C45.807,7 57,18.193 57,32 z" fill-opacity="0" stroke="#758083" stroke-width="1.1"/>
      </g>
      <path d="M34.5,15.75 C34.5,17.131 33.381,18.25 32,18.25 C30.619,18.25 29.5,17.131 29.5,15.75 C29.5,14.369 30.619,13.25 32,13.25 C33.381,13.25 34.5,14.369 34.5,15.75 z" fill="#FF3B1F"/>
      <path d="M25,32 C25,34.347 23.097,36.25 20.75,36.25 C18.403,36.25 16.5,34.347 16.5,32 C16.5,29.653 18.403,27.75 20.75,27.75 C23.097,27.75 25,29.653 25,32 z" fill="#FFFFFF"/>
      <path d="M47.5,32 C47.5,34.347 45.597,36.25 43.25,36.25 C40.903,36.25 39,34.347 39,32 C39,29.653 40.903,27.75 43.25,27.75 C45.597,27.75 47.5,29.653 47.5,32 z" fill="#FFFFFF"/>
      <path d="M25.75,43.25 Q32,49.5 38.25,43.25" fill-opacity="0" stroke="#FFFFFF" stroke-width="2.4" stroke-linecap="round"/>
    </g>
  </g>
</svg>
