<?xml version="1.0" encoding="UTF-8"?>
<!DOCTYPE svg PUBLIC "-//W3C//DTD SVG 1.1//EN" "http://www.w3.org/Graphics/SVG/1.1/DTD/svg11.dtd">
<svg version="1.1" xmlns="http://www.w3.org/2000/svg" xmlns:xlink="http://www.w3.org/1999/xlink" x="0" y="0" width="860" height="860" viewBox="0, 0, 860, 860">
  <g id="Background">
    <rect x="0" y="0" width="860" height="860" fill="#000000" fill-opacity="0"/>
  </g>
  <g id="Layer_1">
    <path d="M830,430 C830,210.415 652.123,31.662 432.908,30.077 C432.662,30.077 432.415,30 432.169,30 L427.846,30 C427.585,30 427.354,30.077 427.092,30.077 C207.862,31.662 30,210.415 30,430 C30,501.308 48.846,568.262 81.692,626.308 C82,626.892 82.169,627.523 82.508,628.108 L84.677,631.877 C85,632.446 85.446,632.892 85.8,633.446 C155.538,750.985 283.692,830 430,830 C576.308,830 704.462,751 774.2,633.446 C774.554,632.877 775.015,632.431 775.354,631.846 L777.492,628.123 C777.815,627.554 777.985,626.938 778.292,626.369 C811.138,568.308 830,501.338 830,430 z M799.231,430 C799.231,477.615 790.077,523.092 773.585,564.923 C768.462,558.231 761.969,552.554 754.138,548.523 L754.138,548.523 L505.969,420.569 C503.354,399.462 492.323,381.092 476.154,368.862 L489.431,90.046 C489.846,81.185 488.138,72.692 484.846,64.877 C662.523,91.446 799.231,245.046 799.231,430 z M747.6,618 C743.846,623.631 738.415,627.631 731.969,629.185 C724.938,630.892 717.615,629.615 711.338,625.585 L488.554,482.4 L504.646,454.508 L740.015,575.862 C740.015,575.862 740.015,575.862 740.015,575.862 C746.692,579.308 751.492,585.015 753.523,591.908 C755.369,598.215 754.615,604.908 751.585,611.031 C750.292,613.369 748.969,615.708 747.6,618 z M148.646,625.569 C142.323,629.646 134.969,630.954 128,629.231 C121.585,627.692 116.138,623.646 112.369,617.969 C111,615.661 109.677,613.338 108.354,611 C105.385,604.938 104.631,598.246 106.492,591.923 C108.523,584.985 113.308,579.292 119.954,575.862 L355.323,454.508 L371.415,482.4 L148.646,625.569 z M383.846,430 C383.846,404.554 404.554,383.846 430,383.846 C455.446,383.846 476.154,404.554 476.154,430 C476.154,455.446 455.446,476.154 430,476.154 C404.554,476.154 383.846,455.446 383.846,430 z M413.908,353.077 L401.308,88.569 C400.954,81.062 403.492,74.062 408.462,68.846 C413.246,63.831 419.846,61.046 427.062,60.846 C428.046,60.831 429.015,60.769 430,60.769 C430.985,60.769 431.954,60.831 432.923,60.846 C440.108,61.046 446.692,63.831 451.508,68.892 C456.492,74.123 459.046,81.108 458.692,88.569 L446.092,353.077 L413.908,353.077 z M375.108,64.862 C371.831,72.677 370.138,81.154 370.569,90.015 C370.569,90.031 370.569,90.031 370.569,90.031 L383.846,368.862 C367.677,381.108 356.646,399.477 354.031,420.569 L105.862,548.523 C98.015,552.569 91.538,558.246 86.431,564.969 C69.938,523.123 60.769,477.631 60.769,430 C60.769,245.062 197.462,91.462 375.108,64.862 z M430,799.231 C313.415,799.231 209.354,744.862 141.631,660.215 C149.892,659.108 157.938,656.185 165.277,651.477 L165.277,651.462 L399.831,500.738 C409.108,504.692 419.292,506.923 430,506.923 C440.708,506.923 450.892,504.692 460.169,500.723 L694.723,651.446 C702.062,656.169 710.108,659.062 718.4,660.169 C650.677,744.846 546.6,799.231 430,799.231 z" fill="#FFFFFF"/>
  </g>
</svg>
