<svg xmlns="http://www.w3.org/2000/svg" fill="none" viewBox="0 0 215 99"><path d="m112.743 40.114 5.268-5.602c1.119.787 2.117 1.716 3.033 2.728l-5.179 5.508a10.78 10.78 0 0 0-3.122-2.634Zm-5.243-1.413c.698 0 1.376.08 2.037.205v-7.534c-.677-.076-1.339-.206-2.037-.206s-1.36.13-2.038.206v7.534c.661-.126 1.34-.205 2.038-.205Zm17.842 6.723h-7.755v.316c.438 1.175.711 2.431.711 3.76h7.535c0-1.406-.191-2.761-.491-4.076ZM96.702 49.5c0-1.3.267-2.53.688-3.684v-.39h-7.733c-.3 1.314-.49 2.669-.49 4.074h7.535Zm5.673-9.449L97.09 34.43c-1.126.779-2.128 1.704-3.051 2.71l5.18 5.508a10.771 10.771 0 0 1 3.156-2.597Zm32.624 9.45c0 15.188-12.311 27.5-27.499 27.5C92.312 77 80 64.687 80 49.5S92.312 22 107.5 22s27.499 12.312 27.499 27.5Zm-4.583 0c0-12.637-10.28-22.917-22.916-22.917-12.637 0-22.917 10.28-22.917 22.917 0 10.225 6.777 18.805 16.042 21.746V65.54h13.75v5.705c9.264-2.94 16.041-11.52 16.041-21.746Z" class="f" style="fill: rgb(178, 178, 178);"></path></svg>